<svg xmlns="http://www.w3.org/2000/svg" viewBox="0 0 228 64" width="228" height="64" role="img" aria-label="Firemoot">
  <defs>
    <linearGradient id="fm-wmd-flame" gradientUnits="userSpaceOnUse" x1="14" y1="6" x2="50" y2="58">
      <stop offset="0" stop-color="#FBBF24"/>
      <stop offset="0.55" stop-color="#F97316"/>
      <stop offset="1" stop-color="#EA580C"/>
    </linearGradient>
    <linearGradient id="fm-wmd-core" gradientUnits="userSpaceOnUse" x1="25" y1="19" x2="40" y2="47">
      <stop offset="0" stop-color="#FEF3C7"/>
      <stop offset="1" stop-color="#FBBF24"/>
    </linearGradient>
  </defs>
  <path fill="url(#fm-wmd-flame)" d="M34 3
    C39.5 13 46 17.5 50 24
    C53 29 54 33.5 54 38
    C54 49 44.6 58 32 58
    C26 58 20.6 56.1 16.5 52.9
    C13.4 56.8 9.6 59.2 5.8 60.4
    C10.4 55.6 12.6 51 12.9 46.2
    C10 41 10.5 34.5 13.5 29
    C16 24.4 20.4 20.6 24.5 16.4
    C25 20.4 26 23.4 28 25.6
    C28.4 18.4 30.6 10 34 3 Z"/>
  <path fill="url(#fm-wmd-core)" d="M34 20
    C36.6 25 40.6 29.4 40.6 35.4
    C40.6 41.6 36.2 46.6 31.3 46.6
    C26.6 46.6 22.8 42.6 22.8 37.6
    C22.8 34.4 24.6 31.4 27.2 29.4
    C27.2 32.8 28.4 35.2 30.2 36.4
    C29.6 31.2 31.2 25 34 20 Z"/>
  <text x="72" y="44" fill="#F5F5F4" font-size="36" font-weight="600" letter-spacing="-0.9"
        font-family="ui-rounded, 'SF Pro Rounded', 'Segoe UI', system-ui, -apple-system, sans-serif">firemoot</text>
</svg>
